<?xml version="1.0" encoding="UTF-8" standalone="no"?>
<svg xmlns:rdf="http://www.w3.org/1999/02/22-rdf-syntax-ns#" xmlns="http://www.w3.org/2000/svg" height="682.29pt" width="875.02pt" version="1.1" xmlns:cc="http://creativecommons.org/ns#" xmlns:dc="http://purl.org/dc/elements/1.1/" viewBox="0 0 875.01685 682.29193">
<g transform="translate(-47.797 -85.708)">
<path d="m487.71 85.711c-83.609 0.23406-167 14.897-247.38 37.53-46.42 24.57-96.929 45.829-132.64 85.659-15.62-2.32-33.62-6.6-47.65 3.1-11.37 7.49-13.001 22.4-11.991 34.77 6.76 60.57 33.5 117.3 37.93 178.21-5.95 49.71-26.799 96.42-34.059 146-2.57 10.53-2.9206 21.38-2.7906 32.17-0.76 14.4 3.231 31.429 16.861 38.909 14.91 6.62 31.079 1.3003 45.809-2.9297 16.78 31.53 43.059 57.231 73.609 75.461 68.33 40.94 150.26 51.879 228.56 53.409 10.35-0.06 20.699-0.02 31.059 0 76.8-0.86 154.4-11.39 227.07-36.9 51.99-21.81 101.86-51.93 139.25-94.75 16.89-20.24 31.07-44.3 33.05-71.17 25.1 0.74 57.53-0.02 72.42-24.3 11.15-21.2 4.8397-46.15-3.5203-67.18-11.86-29.69-29.01-57.12-49-81.98-2.07-2.6-4.9697-5.7606-1.7297-9.1406 22.98-63.35-0.74093-135-45.861-182.3-66.18-71.32-164.68-101.2-258.78-111.23-23.38-2.338-46.81-3.405-70.22-3.339z" fill="#d38257"/>
<path d="m240.33 123.24c102.88-28.97 210.71-44.88 317.6-34.19 94.1 10.03 192.6 39.91 258.78 111.23 45.12 47.3 68.84 118.95 45.86 182.3-3.24 3.38-0.34 6.54 1.73 9.14 19.99 24.86 37.14 52.29 49 81.98 8.36 21.03 14.67 45.98 3.52 67.18-14.89 24.28-47.32 25.04-72.42 24.3-1.98 26.87-16.16 50.93-33.05 71.17-37.39 42.82-87.26 72.94-139.25 94.75-72.67 25.51-150.27 36.04-227.07 36.9-10.36-0.02-20.71-0.06-31.06 0-78.3-1.53-160.23-12.47-228.56-53.41-30.55-18.23-56.83-43.93-73.61-75.46-14.73 4.23-30.9 9.55-45.81 2.93-13.63-7.48-17.62-24.51-16.86-38.91 5.46 20.79 29.46 28.36 48.63 23.68 97.24-21.52 179.31-83.99 276.15-106.75 1.27-0.14 1.91-0.84 1.94-2.11-14.75-2.68-29.29-6.38-43.73-10.39 95.97 13.59 193.37 28.79 290.45 17 72.18-9.34 147.87-32.3 199.24-86.56 28.62-29.33 44.5-70.7 41.99-111.7-3.49-45.99-26.15-88.66-56.65-122.47-18.22-18.7-41.65-31.01-62.1-46.93-94.35-45.79-200.72-62.43-304.82-62.79-91.63 2.71-188.6 19.29-263.35 75.93-48.94 33.96-86.72 89.46-89.89 150 0.05 61.72 51.29 107.76 101.52 135.18-0.17 0.32-0.52 0.95-0.69 1.27-24.45-11.82-47.02-26.97-67.79-44.38-14.75-14.41-27.27-31.27-37.22-48.98 15.38 70.33 4.01 144.99-30.89 207.83 7.26-49.58 28.11-96.29 34.06-146-4.43-60.91-31.17-117.64-37.93-178.21-1.01-12.37 0.62-27.28 11.99-34.77 14.03-9.7 32.03-5.42 47.65-3.1 35.71-39.83 86.22-61.09 132.64-85.66m-167.69 87.21c-13.9 1.82-17.89 18.7-17.45 30.45 1.52 25.11 7.71 52.76 15.79 74.8-0.86-37.09 13.26-73.21 35.09-102.75-10.74-3.09-22.33-3.48-33.43-2.5m772.63 208.42c-22.81 36.13-57.79 62.76-95.21 82.39-38.12 19.22-80.32 29.75-122.29 35.57 22.96 3.59 46.14 5.44 69.34 6.21 54.99-1.27 108.57 16.84 163.64 13.85 15.63-1.23 32.93-4.93 42.92-18.23 12-15.59 10.36-37.32 4.74-55.08-11.96-30.95-39.29-52.53-51.67-83.32-5.31 3.44-6.87 13.33-11.47 18.61m-494.25 111.4c-20.12 9.21-42.37 18.22-60.78 28.68-5.15 1.67-11.89 4.52-14.96 7.78 16.35 19.18 44.83 11.97 66.81 13.22 47.06-3.11 75.73 46.98 121.99 47.84 8.66-1.01 21.35 0.47 26.42-8.54 2.49-11.77-4.95-23.63-0.62-35.35 8.43-9.56 25.42-7.79 37.67-11.14 13.99 3.72 27.93 10.86 42.74 8.67 24.97-2.44 36.64-28.83 55.88-41.48-7.66-3.19-16-1.8-23.95-0.86-33.88 2.03-68.02 0.87-101.87-0.9-37.06-4.36-74.23-8.8-110.73-16.83-13.54-5.74-25.92 5.26-38.6 8.91m283.99 15.72c-25.88 11.72-43.5 39.57-73.2 43.07-19.83 4.39-36.5-19.79-55.66-8.97-10.96 13.52-2.92 34.67-15.92 47.18-11.56 7.96-26.5 10.92-40.1 6.8-32.68-9.29-54.65-38.52-86.28-49.9-31.61-7.79-69.12 7.93-97-13.88-29.97 14.91-60.7 29.8-90.82 43.65 68.64 29.74 144.01 40.54 218.2 44.86 133.72 4.58 270.49-16.51 391.8-74.78 9.71-4.64 21.23-11.67 26.54-19.82-30.46-2.76-61.07-4.67-91.38-9.17-7.13 14.66-5.12 32.87-14.36 46.73-4.91 8.1-15.72 3.13-21.14-1.5-10.03-9.86-13.83-24.24-17.55-37.35 9.81 11.83 13.9 34.75 32.03 34.78 22.33-7.48 0.19-29.55 6.67-44.67-17.05-2.08-33.94-5.21-50.88-8 0.76 1.03 1.63 1.98 2.48 2.97-7.09-1.82-15.68-6.36-23.43-2m180.02 18.62c-43.83 44.86-107.3 59.93-166.07 74.35-148.91 38.67-310.59 39.11-456.02-13.72-7.6-3.54-15.63-9.02-24.16-8.54-15.68 6.68-32.91 11.9-47.66 19.38 28.39 48.27 79.67 78.64 131.27 97.54 58.09 20.18 120.01 27.52 181.24 27.23 89.51-2.57 181.15-17.37 261.68-58.02 57.7-26.29 110.81-70.21 135.33-130.11 7.8-11.49-9.48-8.65-15.61-8.11z" fill="#000002"/>
<path d="m440.23 94.13c-91.63 2.71-188.6 19.29-263.35 75.93-11.74 23.8-24.549 48.701-24.509 76.411-2.56 79.61 39.299 162.23 109.74 201.42 106.12 48.23 225.61 63.949 341.24 55.469 70.78-5.73 141.98-22.249 203.9-58.039 4.63-2.86 8.6494-7.72 14.559-7.3 28.62-29.33 44.501-70.7 41.991-111.7-3.49-45.99-26.15-88.66-56.65-122.47-18.22-18.7-41.65-31.01-62.1-46.93-94.35-45.79-200.72-62.43-304.82-62.79zm29.42 19.57c91.377 0.0297 184.01 15.204 265.92 56.731 17.5 6.82 24.619 26.571 28.939 43.191 6.17 24.59-13.22 45.709-34.45 54.459-41.76 17.05-88.129 19.231-132.57 15.491-77.89-6.98-157.78-13.581-230.58-44.491-22.3-9.74-43.49-22.93-60.18-40.82-12.37-13.6-16.28-37.25-0.55-50.08 32.9-31.5 81.87-30.88 124.42-33.6 12.968-0.58125 25.996-0.88549 39.05-0.88125zm355.07 450.21c-3.5241-0.0276-7.3919 0.49749-9.6906 0.7-43.83 44.86-107.3 59.93-166.07 74.35-148.91 38.67-310.59 39.111-456.02-13.719 12.43 64.3 77.08 100.01 136.5 111.32 122.17 23.4 247.99-0.41969 365.87-33.73 57.7-26.29 110.81-70.209 135.33-130.11 4.875-7.1812-0.047-8.7649-5.9203-8.8109z" fill="#d68c5d"/>
<path d="m430.6 114.58c103.74-4.65 211.36 8.39 304.97 55.85 17.5 6.82 24.62 26.57 28.94 43.19 6.17 24.59-13.22 45.71-34.45 54.46-41.76 17.05-88.13 19.23-132.57 15.49-77.89-6.98-157.78-13.58-230.58-44.49-22.3-9.74-43.49-22.93-60.18-40.82-12.37-13.6-16.28-37.25-0.55-50.08 32.9-31.5 81.87-30.88 124.42-33.6z" fill="#d79469"/>
<path d="m83.148 209.97c-3.5235-0.002-7.039 0.17031-10.508 0.47656-13.9 1.82-17.89 18.7-17.45 30.45 1.52 25.11 7.7091 52.76 15.789 74.8-0.86-37.09 13.261-73.21 35.091-102.75-7.3837-2.1244-15.17-2.9723-22.922-2.9766zm-0.339 153.18c15.38 70.33 4.0109 144.99-30.889 207.83-2.57 10.53-2.9206 21.38-2.7906 32.17 5.46 20.79 29.46 28.36 48.63 23.68 97.24-21.52 179.31-83.99 276.15-106.75 1.27-0.14 1.9106-0.83938 1.9406-2.1094-14.75-2.68-29.29-6.3806-43.73-10.391-22.75-5.68-45.371-12.01-67.791-18.87-36.34 20.19-63.699 54.45-103.09 69.52-17.21 6.46-34.2 16.51-53.25 14.7-8.32-0.67-12.101-9.4594-10.891-16.759 4.13-48.52 22.37-95.131 22.93-144.04-14.75-14.41-27.271-31.27-37.221-48.98zm773.93 37.109c-5.31 3.44-6.8703 13.331-11.47 18.611 6.98 23.84 29.86 46.55 21.5 73.8-3.76 11.64-16.71 17.38-27.97 19.18-30.02 4.03-59.771-3.6106-88.741-10.591-38.12 19.22-80.319 29.75-122.29 35.57 22.96 3.59 46.139 5.4409 69.339 6.2109 54.99-1.27 108.57 16.84 163.64 13.85 15.63-1.23 32.93-4.9312 42.92-18.231 12-15.59 10.359-37.32 4.7391-55.08-11.96-30.95-39.289-52.53-51.669-83.32z" fill="#ffe200"/>
<path d="m120.03 412.13c-0.56 48.91-18.8 95.521-22.93 144.04-1.21 7.3 2.5706 16.089 10.891 16.759 19.05 1.81 36.04-8.24 53.25-14.7 39.39-15.07 66.749-49.33 103.09-69.52-26.1-9.29-51.269-20.84-76.509-32.2-24.45-11.82-47.021-26.97-67.791-44.38zm725.24 6.7406c-22.81 36.13-57.791 62.759-95.211 82.389 28.97 6.98 58.721 14.621 88.741 10.591 11.26-1.8 24.21-7.5397 27.97-19.18 8.36-27.25-14.52-49.96-21.5-73.8z" fill="#f2ec72"/>
<path d="m351.02 530.27c12.68-3.65 25.06-14.65 38.6-8.91 36.5 8.03 73.67 12.47 110.73 16.83-47.04 25.14-103.39 14.28-149.33-7.92z" fill="#aaf491"/>
<path d="m290.24 558.95c18.41-10.46 40.66-19.47 60.78-28.68 45.94 22.2 102.29 33.06 149.33 7.92 33.85 1.77 67.99 2.93 101.87 0.9-22.49 15.81-49.36 23.93-74.67 33.67-12.25 3.35-29.24 1.58-37.67 11.14-0.78-4.79-20.47-5.32-21.35-1.32-47.52 3.14-98.92-1.27-146.42-14.63-6.69-2.35-19.95-7.37-31.87-9z" fill="#1b7d0e"/>
<path d="m614.3 537.97c-4.0362 0.0663-8.1078 0.64875-12.083 1.1188-22.49 15.81-49.36 23.929-74.67 33.669 13.99 3.72 27.931 10.86 42.741 8.6703 24.97-2.44 36.64-28.83 55.88-41.48-3.83-1.595-7.8309-2.0444-11.867-1.9781zm41.656 7.0484c0.76 1.03 1.6312 1.9803 2.4812 2.9703 3.59 4.7 7.24 9.4988 9.7 14.919 9.81 11.83 13.9 34.751 32.03 34.781 22.33-7.48 0.1903-29.55 6.6703-44.67-17.05-2.08-33.941-5.21-50.881-8zm-57.469 10.4c-1.65 2.79-13.081 21.01-22.211 17.38 3.4-8.33 14.551-12.6 22.211-17.38zm-308.25 3.5297c-5.15 1.67-11.891 4.5197-14.961 7.7797 16.35 19.18 44.831 11.97 66.811 13.22 47.06-3.11 75.729 46.981 121.99 47.841 8.66-1.01 21.35 0.46938 26.42-8.5406 2.49-11.77-4.9503-23.63-0.6203-35.35-0.78-4.79-20.47-5.3203-21.35-1.3203-47.52 3.14-98.92-1.2697-146.42-14.63-6.69-2.35-19.949-7.37-31.869-9zm412.07 10.47c2.85 2.65 9.8303 13.509 4.6703 19.589-8.81-0.72-4.1603-13.939-4.6703-19.589zm-222.02 25.859c2.85 4.31 11.36 24.501-0.8703 23.711-5.35-6.8-0.8697-16.211 0.8703-23.711z" fill="#ff2c00"/>
<path d="m635.01 545.99c7.75-4.36 16.34 0.18 23.43 2 3.59 4.7 7.24 9.5 9.7 14.92 3.72 13.11 7.52 27.49 17.55 37.35 5.42 4.63 16.23 9.6 21.14 1.5 9.24-13.86 7.23-32.07 14.36-46.73 30.31 4.5 60.92 6.41 91.38 9.17-5.31 8.15-16.83 15.18-26.54 19.82-121.31 58.27-258.08 79.36-391.8 74.78-74.19-4.32-149.56-15.12-218.2-44.86 30.12-13.85 60.85-28.74 90.82-43.65 27.88 21.81 65.39 6.09 97 13.88 31.63 11.38 53.6 40.61 86.28 49.9 13.6 4.12 28.54 1.16 40.1-6.8 13-12.51 4.96-33.66 15.92-47.18 19.16-10.82 35.83 13.36 55.66 8.97 29.7-3.5 47.32-31.35 73.2-43.07z" fill="#794748"/>
<path d="m598.49 555.42c-7.66 4.78-18.811 9.0497-22.211 17.38 9.13 3.63 20.561-14.59 22.211-17.38zm103.82 14c0.51 5.65-4.1397 18.869 4.6703 19.589 5.16-6.08-1.8203-16.939-4.6703-19.589zm-222.02 25.859c-1.74 7.5-6.2203 16.911-0.8703 23.711 12.23 0.79 3.7203-19.401 0.8703-23.711z" fill="#ff8979"/>
</g>
</svg>
